<?xml version="1.0" encoding="UTF-8" standalone="no"?>
<svg
   width="24"
   height="24"
   viewBox="0 0 24 24"
   fill="none"
   version="1.1"
   id="svg29"
   sodipodi:docname="best.svg"
   xmlns:inkscape="http://www.inkscape.org/namespaces/inkscape"
   xmlns:sodipodi="http://sodipodi.sourceforge.net/DTD/sodipodi-0.dtd"
   xmlns="http://www.w3.org/2000/svg"
   xmlns:svg="http://www.w3.org/2000/svg">
  <defs
     id="defs33" />
  <sodipodi:namedview
     id="namedview31"
     pagecolor="#ffffff"
     bordercolor="#666666"
     borderopacity="1.0"
     inkscape:showpageshadow="2"
     inkscape:pageopacity="0.0"
     inkscape:pagecheckerboard="0"
     inkscape:deskcolor="#d1d1d1" />
  <path
     style="color:#000000;fill:#313131;-inkscape-stroke:none"
     d="m 12,1.2207031 c -0.38288,0 -0.761204,0.079644 -1.111328,0.234375 C 10.538507,1.609841 10.22454,1.8359398 9.9667969,2.1191406 L 8.9472656,3.2382813 C 8.8234669,3.374188 8.6718038,3.4823925 8.5019531,3.5527344 8.3320984,3.6230717 8.1484423,3.6550778 7.9648437,3.6464844 L 6.4511719,3.5742188 h -0.00195 C 6.0669365,3.5565786 5.6849527,3.6194648 5.328125,3.7578125 4.971314,3.8961591 4.6474394,4.1081587 4.3769531,4.3789062 4.1064721,4.6496485 3.8958153,4.9731297 3.7578125,5.3300781 3.6198105,5.6870243 3.5581598,6.0688886 3.5761719,6.4511719 l 0.070312,1.5117187 v 0.00195 C 3.6550735,8.1484902 3.623062,8.3301901 3.5527344,8.5 3.4824033,8.6698397 3.3761189,8.8234933 3.2402344,8.9472656 L 2.1191406,9.9667969 C 1.8359488,10.224532 1.6098416,10.538474 1.4550781,10.888672 1.3003538,11.238781 1.2207031,11.617102 1.2207031,12 c 0,0.382836 0.079621,0.761153 0.234375,1.111328 0.1547635,0.350198 0.3808707,0.66414 0.6640625,0.921875 l 1.1210938,1.019531 c 0.1357957,0.123667 0.2421593,0.277416 0.3125,0.447266 0.07032,0.169785 0.1023398,0.351482 0.09375,0.535156 l -0.070312,1.515625 h -0.00195 c -0.017642,0.382264 0.045227,0.764245 0.1835937,1.121094 0.1383374,0.356774 0.350285,0.680652 0.6210937,0.951172 0.270695,0.27042 0.5940255,0.481157 0.9511719,0.61914 0.3569538,0.138047 0.7387746,0.199655 1.1210938,0.181641 l 1.5136718,-0.07031 c 0.1833809,-0.0086 0.3671153,0.02337 0.5371094,0.09375 0.1697417,0.07028 0.3214751,0.178516 0.4453125,0.314453 l 1.0195313,1.11914 c 0.2577381,0.283183 0.5717631,0.509282 0.9218751,0.664063 0.349961,0.154577 0.72834,0.234375 1.111328,0.234375 0.382925,0 0.7613,-0.07977 1.111328,-0.234375 0.350112,-0.154781 0.664137,-0.38088 0.921875,-0.664063 l 1.021485,-1.11914 c 0.123704,-0.135826 0.275554,-0.244163 0.445312,-0.314453 0.169951,-0.07037 0.353686,-0.102366 0.537109,-0.09375 l 1.513672,0.07227 c 0.38214,0.0176 0.764208,-0.04524 1.121094,-0.183594 0.356505,-0.138343 0.680585,-0.350232 0.951172,-0.621093 0.270285,-0.270697 0.481155,-0.594033 0.61914,-0.951172 0.138051,-0.356953 0.199656,-0.738791 0.181641,-1.121094 l -0.06836,-1.513672 c -0.0086,-0.183423 0.02338,-0.365205 0.09375,-0.535156 0.07029,-0.169758 0.176674,-0.323561 0.3125,-0.447266 l 1.11914,-1.019531 C 22.164042,13.775465 22.390141,13.46144 22.544922,13.111328 22.699528,12.7613 22.779297,12.382925 22.779297,12 c 0,-0.382988 -0.0798,-0.761367 -0.234375,-1.111328 -0.154781,-0.350112 -0.38088,-0.664137 -0.664063,-0.9218751 L 20.761719,8.9472656 C 20.625804,8.8234547 20.519499,8.6697476 20.449219,8.5 20.378841,8.3300244 20.346854,8.1482391 20.355469,7.9648437 l 0.07031,-1.515625 C 20.443374,6.0670604 20.380527,5.6849881 20.242187,5.328125 20.103833,4.9715634 19.893838,4.6474971 19.623047,4.3769531 h -0.002 C 19.35035,4.1065946 19.026873,3.8958216 18.669922,3.7578125 18.312977,3.6198057 17.931095,3.5581586 17.548828,3.5761719 l -1.511719,0.070312 C 15.853468,3.6550789 15.669812,3.623059 15.5,3.5527344 15.330133,3.4823804 15.178354,3.3740769 15.054688,3.2382813 L 14.033203,2.1191406 C 13.77546,1.8359398 13.461493,1.609841 13.111328,1.4550781 12.761138,1.3003178 12.382818,1.2207031 12,1.2207031 Z m 0,1.5 c 0.173982,0 0.34665,0.035109 0.505859,0.1054688 0.159235,0.070377 0.300912,0.1741156 0.417969,0.3027344 h 0.002 l 1.019532,1.1191406 c 0.272333,0.2990438 0.606936,0.5347473 0.980468,0.6894531 0.373588,0.1547152 0.777683,0.2259367 1.181641,0.2070312 l 1.511719,-0.070312 c 0.173732,-0.00819 0.347511,0.019298 0.509765,0.082031 0.162249,0.062731 0.310338,0.160122 0.433594,0.2832031 0.122448,0.1226599 0.218405,0.2696779 0.28125,0.4316406 0.06286,0.1621564 0.09199,0.3358446 0.08398,0.5097657 l -0.07227,1.5136718 c -0.01899,0.4041641 0.05241,0.8062437 0.207031,1.1796876 0.154719,0.3736918 0.390568,0.7082 0.689453,0.9804692 l 1.119141,1.021484 c 0.128617,0.117061 0.232315,0.258681 0.302734,0.417969 0.07042,0.159438 0.105469,0.331848 0.105469,0.505859 0,0.173874 -0.03507,0.346488 -0.105469,0.505859 -0.07042,0.159288 -0.174117,0.300908 -0.302734,0.417969 l -1.119141,1.021485 c -0.298974,0.272294 -0.534743,0.606827 -0.689453,0.980468 -0.15463,0.373449 -0.226016,0.775512 -0.207031,1.179688 l 0.07031,1.513672 c 0.0082,0.173696 -0.01928,0.347518 -0.08203,0.509765 -0.06261,0.16206 -0.158135,0.310291 -0.28125,0.433594 -0.122813,0.122938 -0.271099,0.218193 -0.433594,0.28125 -0.161508,0.06261 -0.334603,0.09169 -0.507812,0.08398 l -1.513672,-0.07227 c -0.404176,-0.01899 -0.808192,0.0524 -1.181641,0.207031 -0.373641,0.15471 -0.708174,0.390479 -0.980468,0.689453 l -1.019532,1.119141 h -0.002 c -0.117061,0.128617 -0.258681,0.232315 -0.417969,0.302734 -0.159371,0.07039 -0.331985,0.105469 -0.505859,0.105469 -0.173368,0 -0.344966,-0.03556 -0.503906,-0.105469 h -0.002 c -0.158699,-0.0704 -0.301266,-0.174511 -0.417969,-0.302734 L 10.056641,19.75 C 9.7843784,19.451137 9.4479166,19.217222 9.0742188,19.0625 8.7007735,18.907883 8.2986898,18.836483 7.8945312,18.855469 l -1.5136718,0.07031 C 6.2071191,18.933967 6.0333595,18.906504 5.8710937,18.84375 5.7090207,18.781133 5.5625578,18.683527 5.4394531,18.560547 5.3164423,18.437667 5.2191524,18.291132 5.15625,18.128906 5.0936119,17.967362 5.0665012,17.794179 5.0742187,17.621094 v -0.002 l 0.070312,-1.513672 C 5.1634214,15.701544 5.0922398,15.299395 4.9375,14.925781 4.7828009,14.552232 4.5490439,14.217646 4.25,13.945313 L 3.1289063,12.923828 C 3.0002785,12.806763 2.8984813,12.665061 2.828125,12.505859 2.7577589,12.346635 2.7207031,12.173964 2.7207031,12 c 0,-0.174101 0.037026,-0.346569 0.1074219,-0.505859 0.070356,-0.159202 0.1721535,-0.300904 0.3007813,-0.417969 L 4.25,10.054688 C 4.548955,9.7823802 4.7827913,9.4478185 4.9375,9.0742188 5.0922322,8.7006092 5.1634221,8.2984442 5.1445312,7.8945312 L 5.0742187,6.3808594 C 5.0660309,6.2070832 5.0954653,6.033367 5.1582031,5.8710937 5.2209401,5.7088227 5.3164946,5.5605773 5.4394531,5.4375 5.5624065,5.3144279 5.7088853,5.2191432 5.8710937,5.15625 6.0333055,5.0933579 6.2070621,5.0642458 6.3808594,5.0722656 l 1.5136718,0.072266 C 8.2984721,5.1634378 8.700634,5.0922025 9.0742188,4.9375 9.4478076,4.7827821 9.7843398,4.5489328 10.056641,4.25 v -0.00195 L 11.076172,3.1289063 C 11.193229,3.0002875 11.334906,2.8965488 11.494141,2.8261719 11.653416,2.7557831 11.825881,2.7207031 12,2.7207031 Z"
     id="path25" />
  <path
     style="color:#000000;fill:#313131;stroke-linecap:round;stroke-linejoin:round;-inkscape-stroke:none"
     d="M 15,9.25 A 0.75,0.75 0 0 0 14.46875,9.46875 L 11,12.9375 9.53125,11.46875 a 0.75,0.75 0 0 0 -1.0625,0 0.75,0.75 0 0 0 0,1.0625 l 2,2 a 0.750075,0.750075 0 0 0 1.0625,0 l 4,-4 a 0.75,0.75 0 0 0 0,-1.0625 A 0.75,0.75 0 0 0 15,9.25 Z"
     id="path27" />
</svg>
