<?xml version="1.0" encoding="UTF-8" standalone="no"?>
<svg
   width="24"
   height="24"
   viewBox="0 0 24 24"
   fill="none"
   version="1.1"
   id="svg140"
   sodipodi:docname="edit.svg"
   xmlns:inkscape="http://www.inkscape.org/namespaces/inkscape"
   xmlns:sodipodi="http://sodipodi.sourceforge.net/DTD/sodipodi-0.dtd"
   xmlns="http://www.w3.org/2000/svg"
   xmlns:svg="http://www.w3.org/2000/svg">
  <defs
     id="defs144" />
  <sodipodi:namedview
     id="namedview142"
     pagecolor="#ffffff"
     bordercolor="#666666"
     borderopacity="1.0"
     inkscape:showpageshadow="2"
     inkscape:pageopacity="0.0"
     inkscape:pagecheckerboard="0"
     inkscape:deskcolor="#d1d1d1" />
  <path
     d="M16.175 4.1L17.6 5.5L11 12.1V13.525H12.4L19.025 6.9L20.45 8.3L13.825 14.925C13.6417 15.1083 13.4293 15.2543 13.188 15.363C12.946 15.471 12.6917 15.525 12.425 15.525H10C9.71667 15.525 9.47933 15.4293 9.288 15.238C9.096 15.046 9 14.8083 9 14.525V12.1C9 11.8333 9.05 11.579 9.15 11.337C9.25 11.0957 9.39167 10.8833 9.575 10.7L16.175 4.1ZM20.45 8.3L16.175 4.1L18.675 1.6C19.075 1.2 19.5543 1 20.113 1C20.671 1 21.1417 1.2 21.525 1.6L22.925 3.025C23.3083 3.40833 23.5 3.875 23.5 4.425C23.5 4.975 23.3083 5.44167 22.925 5.825L20.45 8.3Z"
     fill="#A8DB19"
     id="path136" />
  <path
     style="color:#000000;fill:#a8db19;-inkscape-stroke:none"
     d="M 3,3.3007813 C 1.5171238,3.3007813 0.30078125,4.5171238 0.30078125,6 v 14 c 0,1.482896 1.21635525,2.699219 2.69921875,2.699219 h 15 c 1.482883,0 2.699219,-1.216336 2.699219,-2.699219 V 13.5 H 19.300781 V 20 c 0,0.726315 -0.574466,1.300781 -1.300781,1.300781 H 3 C 2.2737257,21.300781 1.6992187,20.726302 1.6992187,20 V 6 C 1.6992187,5.2737384 2.2737384,4.6992188 3,4.6992187 H 13 V 3.3007813 Z"
     id="path138" />
</svg>
