<?xml version="1.0" encoding="UTF-8" standalone="no"?>
<svg
   width="24"
   height="24"
   viewBox="0 0 24 24"
   fill="none"
   version="1.1"
   id="svg179"
   sodipodi:docname="game.svg"
   xmlns:inkscape="http://www.inkscape.org/namespaces/inkscape"
   xmlns:sodipodi="http://sodipodi.sourceforge.net/DTD/sodipodi-0.dtd"
   xmlns="http://www.w3.org/2000/svg"
   xmlns:svg="http://www.w3.org/2000/svg">
  <defs
     id="defs183" />
  <sodipodi:namedview
     id="namedview181"
     pagecolor="#ffffff"
     bordercolor="#666666"
     borderopacity="1.0"
     inkscape:showpageshadow="2"
     inkscape:pageopacity="0.0"
     inkscape:pagecheckerboard="0"
     inkscape:deskcolor="#d1d1d1" />
  <path
     style="color:#000000;fill:#a8db19;stroke-linecap:round;stroke-linejoin:round;-inkscape-stroke:none"
     d="M 10.667969,1.3320312 C 9.2821815,1.5031783 7.9084992,1.9484317 6.625,2.6894531 1.4910489,5.6535348 -0.2746447,12.241077 2.6894531,17.375 5.6535333,22.509024 12.240987,24.274599 17.375,21.310547 22.508926,18.346483 24.272649,11.758985 21.308594,6.625 19.085547,2.7745347 14.82533,0.81859017 10.667969,1.3320312 Z m 0.191406,1.4843751 C 14.43672,2.3700888 18.090716,4.0510774 20.009766,7.375 22.568505,11.806946 21.056865,17.451035 16.625,20.009766 12.193022,22.568508 6.5470356,21.056967 3.9882813,16.625 1.4295186,12.193132 2.9431007,6.547034 7.375,3.9882813 8.4829884,3.3485901 9.6669267,2.9651787 10.859375,2.8164063 Z"
     id="path166" />
  <path
     style="color:#000000;fill:#a8db19;stroke-linecap:round;stroke-linejoin:round;-inkscape-stroke:none"
     d="m 13.929688,1.4355469 a 0.75,0.75 0 0 0 -0.757813,0.7441406 c -0.04683,5.5065235 2.727593,10.2781945 7.875,13.6875005 A 0.75,0.75 0 0 0 22.085937,15.65625 0.75,0.75 0 0 0 21.875,14.617188 C 17.050417,11.421699 14.629306,7.1986653 14.671875,2.1933594 A 0.75,0.75 0 0 0 13.929688,1.4355469 Z"
     id="path163" />
  <path
     style="color:#000000;fill:#a8db19;stroke-linecap:round;stroke-linejoin:round;-inkscape-stroke:none"
     d="M 2.9082031,8.1054688 A 0.75,0.75 0 0 0 1.8867187,8.3886719 0.75,0.75 0 0 0 2.1699219,9.4101563 C 6.5259212,11.875966 8.9730647,16.083428 9.328125,21.859375 a 0.75,0.75 0 0 0 0.794922,0.703125 0.75,0.75 0 0 0 0.703125,-0.794922 C 10.447353,15.605137 7.7003947,10.818194 2.9082031,8.1054688 Z"
     id="path160" />
</svg>
