<?xml version="1.0" encoding="UTF-8" standalone="no"?>
<svg
   width="20"
   height="20"
   viewBox="0 0 20 20"
   fill="none"
   version="1.1"
   id="svg213"
   sodipodi:docname="grid.svg"
   xmlns:inkscape="http://www.inkscape.org/namespaces/inkscape"
   xmlns:sodipodi="http://sodipodi.sourceforge.net/DTD/sodipodi-0.dtd"
   xmlns="http://www.w3.org/2000/svg"
   xmlns:svg="http://www.w3.org/2000/svg">
  <defs
     id="defs217" />
  <sodipodi:namedview
     id="namedview215"
     pagecolor="#ffffff"
     bordercolor="#666666"
     borderopacity="1.0"
     inkscape:showpageshadow="2"
     inkscape:pageopacity="0.0"
     inkscape:pagecheckerboard="0"
     inkscape:deskcolor="#d1d1d1" />
  <path
     style="color:#000000;fill:#ffffff;stroke-linecap:round;stroke-linejoin:round;-inkscape-stroke:none"
     d="m 7.5,1.0664062 c -2.1633329,0 -3.8096645,0.4366147 -4.9042969,1.5312501 C 1.5010707,3.6922916 1.0664062,5.3366675 1.0664062,7.5 v 5 c 0,2.163299 0.4346656,3.809664 1.5292969,4.904297 C 3.6903344,18.49893 5.3366656,18.933594 7.5,18.933594 h 5 c 2.163349,0 3.807698,-0.434666 4.902344,-1.529297 1.094645,-1.094631 1.53125,-2.740996 1.53125,-4.904297 v -5 c 0,-2.1633344 -0.436604,-3.8077102 -1.53125,-4.9023437 C 16.307697,1.5030227 14.663347,1.0664062 12.5,1.0664062 Z m 0,1.2011719 h 5 c 2.003348,0 3.274311,0.3973674 4.054687,1.1777344 0.780377,0.780367 1.177735,2.051356 1.177735,4.0546875 v 5 c 0,2.003295 -0.397357,3.27432 -1.177735,4.054687 -0.780377,0.780368 -2.05134,1.179688 -4.054687,1.179688 h -5 c -2.0033315,0 -3.2743232,-0.399322 -4.0546875,-1.179688 C 2.6649482,15.774322 2.265625,14.503297 2.265625,12.5 v -5 c 0,-2.0033334 0.3993243,-3.2743222 1.1796875,-4.0546875 C 4.2256757,2.6649472 5.4966671,2.2675781 7.5,2.2675781 Z"
     id="path205" />
  <path
     style="color:#000000;fill:#ffffff;stroke-linecap:round;stroke-linejoin:round;-inkscape-stroke:none"
     d="M 1.6914062,6.484375 A 0.60000002,0.60000002 0 0 0 1.0917969,7.0839844 0.60000002,0.60000002 0 0 0 1.6914062,7.6835937 H 18.333984 a 0.60000002,0.60000002 0 0 0 0.59961,-0.5996093 0.60000002,0.60000002 0 0 0 -0.59961,-0.5996094 z"
     id="path202" />
  <path
     style="color:#000000;fill:#ffffff;stroke-linecap:round;stroke-linejoin:round;-inkscape-stroke:none"
     d="m 1.6914062,12.316406 a 0.60000002,0.60000002 0 0 0 -0.5996093,0.601563 0.60000002,0.60000002 0 0 0 0.5996093,0.599609 H 18.333984 a 0.60000002,0.60000002 0 0 0 0.59961,-0.599609 0.60000002,0.60000002 0 0 0 -0.59961,-0.601563 z"
     id="path199" />
  <path
     style="color:#000000;fill:#ffffff;stroke-linecap:round;stroke-linejoin:round;-inkscape-stroke:none"
     d="M 7.0917969,1.0761719 A 0.60000002,0.60000002 0 0 0 6.4921875,1.6757812 V 18.326172 a 0.60000002,0.60000002 0 0 0 0.5996094,0.599609 0.60000002,0.60000002 0 0 0 0.5996093,-0.599609 V 1.6757812 A 0.60000002,0.60000002 0 0 0 7.0917969,1.0761719 Z"
     id="path196" />
  <path
     style="color:#000000;fill:#ffffff;stroke-linecap:round;stroke-linejoin:round;-inkscape-stroke:none"
     d="M 12.925781,1.0761719 A 0.60000002,0.60000002 0 0 0 12.326172,1.6757812 V 18.326172 a 0.60000002,0.60000002 0 0 0 0.599609,0.599609 0.60000002,0.60000002 0 0 0 0.59961,-0.599609 V 1.6757812 a 0.60000002,0.60000002 0 0 0 -0.59961,-0.5996093 z"
     id="path193" />
</svg>
