<?xml version="1.0" encoding="UTF-8" standalone="no"?>
<svg
   width="11"
   height="17"
   viewBox="0 0 11 17"
   fill="none"
   version="1.1"
   id="svg293"
   sodipodi:docname="out.svg"
   xmlns:inkscape="http://www.inkscape.org/namespaces/inkscape"
   xmlns:sodipodi="http://sodipodi.sourceforge.net/DTD/sodipodi-0.dtd"
   xmlns="http://www.w3.org/2000/svg"
   xmlns:svg="http://www.w3.org/2000/svg">
  <defs
     id="defs297" />
  <sodipodi:namedview
     id="namedview295"
     pagecolor="#ffffff"
     bordercolor="#666666"
     borderopacity="1.0"
     inkscape:showpageshadow="2"
     inkscape:pageopacity="0.0"
     inkscape:pagecheckerboard="0"
     inkscape:deskcolor="#d1d1d1" />
  <path
     d="M0.46702 15.1155L0.192804 15.6491L1.26015 16.1976L1.53436 15.6639L0.46702 15.1155ZM8.96579 0.816537C8.86447 0.501037 8.52657 0.327413 8.21107 0.428737L3.0697 2.0799C2.7542 2.18123 2.58058 2.51913 2.6819 2.83463C2.78322 3.15013 3.12113 3.32375 3.43663 3.22243L8.00673 1.75473L9.47443 6.32483C9.57576 6.64033 9.91366 6.81395 10.2292 6.71263C10.5447 6.61131 10.7183 6.2734 10.617 5.9579L8.96579 0.816537ZM1.53436 15.6639L8.9282 1.27422L7.86086 0.725784L0.46702 15.1155L1.53436 15.6639Z"
     fill="white"
     id="path302" />
</svg>
