<?xml version="1.0" encoding="UTF-8" standalone="no"?>
<svg
   width="24"
   height="24"
   viewBox="0 0 24 24"
   fill="none"
   version="1.1"
   id="svg314"
   sodipodi:docname="profile.svg"
   xmlns:inkscape="http://www.inkscape.org/namespaces/inkscape"
   xmlns:sodipodi="http://sodipodi.sourceforge.net/DTD/sodipodi-0.dtd"
   xmlns="http://www.w3.org/2000/svg"
   xmlns:svg="http://www.w3.org/2000/svg">
  <defs
     id="defs318" />
  <sodipodi:namedview
     id="namedview316"
     pagecolor="#ffffff"
     bordercolor="#666666"
     borderopacity="1.0"
     inkscape:showpageshadow="2"
     inkscape:pageopacity="0.0"
     inkscape:pagecheckerboard="0"
     inkscape:deskcolor="#d1d1d1" />
  <path
     style="color:#000000;fill:#a8db19;-inkscape-stroke:none"
     d="M 12.5,1 C 6.7093071,1 2,5.7093071 2,11.5 2,17.290693 6.7093071,22 12.5,22 18.290693,22 23,17.290693 23,11.5 23,5.7093071 18.290693,1 12.5,1 Z m 0,1.4003906 c 5.034078,0 9.099609,4.0655319 9.099609,9.0996094 0,5.034078 -4.065531,9.099609 -9.099609,9.099609 -5.0340775,0 -9.0996094,-4.065531 -9.0996094,-9.099609 0,-5.0340775 4.0655319,-9.0996094 9.0996094,-9.0996094 z"
     id="circle308" />
  <path
     d="M17.8719 17.0812C18.5722 17.7722 18.9731 18.7107 18.988 19.6945L12 22L6 19.6945C6.01495 18.7107 6.41575 17.7722 7.11607 17.0812C7.81638 16.3901 8.76014 16.0019 9.744 16H15.244C16.2279 16.0019 17.1716 16.3901 17.8719 17.0812Z"
     fill="#A8DB19"
     id="path310" />
  <path
     d="M12.5 7C11.8078 7 11.1311 7.20527 10.5555 7.58986C9.97993 7.97444 9.53133 8.52107 9.26642 9.16061C9.00152 9.80015 8.9322 10.5039 9.06725 11.1828C9.2023 11.8617 9.53564 12.4854 10.0251 12.9749C10.5146 13.4644 11.1383 13.7977 11.8172 13.9327C12.4961 14.0678 13.1999 13.9985 13.8394 13.7336C14.4789 13.4687 15.0256 13.0201 15.4101 12.4445C15.7947 11.8689 16 11.1922 16 10.5C16 9.57174 15.6313 8.6815 14.9749 8.02513C14.3185 7.36875 13.4283 7 12.5 7Z"
     fill="#A8DB19"
     id="path312" />
</svg>
