<?xml version="1.0" encoding="UTF-8" standalone="no"?>
<svg
   width="24"
   height="24"
   viewBox="0 0 24 24"
   fill="none"
   version="1.1"
   id="svg338"
   sodipodi:docname="rating.svg"
   xmlns:inkscape="http://www.inkscape.org/namespaces/inkscape"
   xmlns:sodipodi="http://sodipodi.sourceforge.net/DTD/sodipodi-0.dtd"
   xmlns="http://www.w3.org/2000/svg"
   xmlns:svg="http://www.w3.org/2000/svg">
  <defs
     id="defs342" />
  <sodipodi:namedview
     id="namedview340"
     pagecolor="#ffffff"
     bordercolor="#666666"
     borderopacity="1.0"
     inkscape:showpageshadow="2"
     inkscape:pageopacity="0.0"
     inkscape:pagecheckerboard="0"
     inkscape:deskcolor="#d1d1d1" />
  <path
     style="color:#000000;fill:#313131;stroke-linecap:round;stroke-linejoin:round;stroke-miterlimit:10;-inkscape-stroke:none"
     d="M 2,1.25 A 0.75,0.75 0 0 0 1.25,2 v 17 c 0,2.063612 1.6863876,3.75 3.75,3.75 H 22 A 0.75,0.75 0 0 0 22.75,22 0.75,0.75 0 0 0 22,21.25 H 5 C 3.7436157,21.25 2.75,20.256384 2.75,19 V 2 A 0.75,0.75 0 0 0 2,1.25 Z"
     id="path306" />
  <path
     style="color:#000000;fill:#313131;stroke-linecap:round;stroke-linejoin:round;stroke-miterlimit:10;-inkscape-stroke:none"
     d="M 20.941406,6.2519531 A 0.75,0.75 0 0 0 20.429687,6.5117187 L 15.832031,11.878906 C 15.350014,12.437032 14.518186,12.467404 14,11.949219 L 13.052734,11.001953 13.050781,11 C 11.92862,9.8664297 10.057032,9.9513359 9.0214844,11.150391 a 0.750075,0.750075 0 0 0 -0.00195,0.002 l -4.5898438,5.359375 a 0.75,0.75 0 0 0 0.082031,1.058593 0.75,0.75 0 0 0 1.0585938,-0.08203 l 4.5878905,-5.357422 c 0.483855,-0.560253 1.31007,-0.598591 1.828125,-0.07422 a 0.750075,0.750075 0 0 0 0.0039,0.0039 l 0.949219,0.949219 c 1.121813,1.121812 2.989363,1.051481 4.027344,-0.150391 a 0.750075,0.750075 0 0 0 0.002,-0.002 L 21.570312,7.4882812 A 0.75,0.75 0 0 0 21.488281,6.4296875 0.75,0.75 0 0 0 20.941406,6.2519531 Z"
     id="path303" />
</svg>
