<?xml version="1.0" encoding="UTF-8" standalone="no"?>
<svg
   width="16"
   height="12"
   viewBox="0 0 16 12"
   fill="none"
   version="1.1"
   id="svg361"
   sodipodi:docname="refresh.svg"
   xmlns:inkscape="http://www.inkscape.org/namespaces/inkscape"
   xmlns:sodipodi="http://sodipodi.sourceforge.net/DTD/sodipodi-0.dtd"
   xmlns="http://www.w3.org/2000/svg"
   xmlns:svg="http://www.w3.org/2000/svg">
  <defs
     id="defs365" />
  <sodipodi:namedview
     id="namedview363"
     pagecolor="#ffffff"
     bordercolor="#666666"
     borderopacity="1.0"
     inkscape:showpageshadow="2"
     inkscape:pageopacity="0.0"
     inkscape:pagecheckerboard="0"
     inkscape:deskcolor="#d1d1d1" />
  <path
     d="M11.5331 5.00001H15.4651C15.5126 5.00003 15.5591 5.01358 15.5992 5.03908C15.6393 5.06458 15.6713 5.10097 15.6914 5.14399C15.7116 5.18701 15.719 5.23487 15.713 5.28199C15.7069 5.3291 15.6875 5.37351 15.6571 5.41001L13.6911 7.77001C13.6676 7.79815 13.6383 7.82078 13.6051 7.83631C13.5719 7.85185 13.5357 7.8599 13.4991 7.8599C13.4625 7.8599 13.4263 7.85185 13.3931 7.83631C13.3599 7.82078 13.3306 7.79815 13.3071 7.77001L11.3411 5.41001C11.3107 5.37351 11.2913 5.3291 11.2853 5.28199C11.2792 5.23487 11.2867 5.18701 11.3068 5.14399C11.3269 5.10097 11.3589 5.06458 11.399 5.03908C11.4391 5.01358 11.4856 5.00003 11.5331 5.00001ZM0.53311 7.00001H4.46511C4.51261 6.99999 4.55913 6.98644 4.59921 6.96094C4.63929 6.93544 4.67127 6.89905 4.69142 6.85603C4.71157 6.81301 4.71904 6.76514 4.71296 6.71803C4.70689 6.67092 4.68751 6.62651 4.65711 6.59001L2.69111 4.23001C2.66765 4.20187 2.63829 4.17924 2.60511 4.16371C2.57193 4.14817 2.53574 4.14012 2.49911 4.14012C2.46247 4.14012 2.42629 4.14817 2.39311 4.16371C2.35993 4.17924 2.33057 4.20187 2.30711 4.23001L0.34111 6.59001C0.310707 6.62651 0.291334 6.67092 0.285257 6.71803C0.279181 6.76514 0.286653 6.81301 0.306799 6.85603C0.326945 6.89905 0.358931 6.93544 0.399011 6.96094C0.439091 6.98644 0.485606 6.99999 0.53311 7.00001Z"
     fill="#A8DB19"
     id="path326" />
  <path
     fill-rule="evenodd"
     clip-rule="evenodd"
     d="M7.99903 1.00001C6.44703 1.00001 5.05903 1.70701 4.14203 2.81801C4.10108 2.87108 4.04988 2.91538 3.99147 2.94827C3.93306 2.98116 3.86863 3.00197 3.80202 3.00946C3.73541 3.01695 3.66797 3.01096 3.60371 2.99187C3.53946 2.97277 3.4797 2.94095 3.42799 2.89829C3.37628 2.85564 3.33367 2.80302 3.30271 2.74357C3.27174 2.68411 3.25304 2.61904 3.24773 2.55222C3.24242 2.4854 3.25059 2.41819 3.27178 2.35459C3.29296 2.29099 3.32671 2.2323 3.37103 2.18201C4.10322 1.29554 5.07462 0.638023 6.16969 0.287667C7.26477 -0.0626883 8.43743 -0.0911384 9.54821 0.2057C10.659 0.502539 11.6611 1.11218 12.4354 1.9621C13.2098 2.81202 13.7237 3.86646 13.916 5.00001H12.899C12.6682 3.87082 12.0544 2.856 11.1616 2.12716C10.2687 1.39831 9.15158 1.00015 7.99903 1.00001ZM3.09903 7.00001C3.28834 7.92464 3.73538 8.77683 4.38851 9.45815C5.04163 10.1395 5.87419 10.6221 6.78999 10.8503C7.7058 11.0785 8.66747 11.0429 9.56392 10.7477C10.4604 10.4525 11.255 9.90971 11.856 9.18201C11.897 9.12894 11.9482 9.08464 12.0066 9.05175C12.065 9.01886 12.1294 8.99806 12.196 8.99057C12.2627 8.98308 12.3301 8.98906 12.3943 9.00816C12.4586 9.02725 12.5184 9.05908 12.5701 9.10173C12.6218 9.14439 12.6644 9.197 12.6954 9.25646C12.7263 9.31591 12.745 9.38098 12.7503 9.4478C12.7556 9.51462 12.7475 9.58183 12.7263 9.64543C12.7051 9.70903 12.6714 9.76772 12.627 9.81801C11.8948 10.7045 10.9234 11.362 9.82837 11.7124C8.73329 12.0627 7.56063 12.0912 6.44986 11.7943C5.33908 11.4975 4.33694 10.8878 3.56262 10.0379C2.7883 9.188 2.2744 8.13356 2.08203 7.00001H3.09903Z"
     fill="#A8DB19"
     id="path323" />
</svg>
