<?xml version="1.0" encoding="UTF-8" standalone="no"?>
<svg
   width="20"
   height="20"
   viewBox="0 0 20 20"
   fill="none"
   version="1.1"
   id="svg441"
   sodipodi:docname="setting.svg"
   xmlns:inkscape="http://www.inkscape.org/namespaces/inkscape"
   xmlns:sodipodi="http://sodipodi.sourceforge.net/DTD/sodipodi-0.dtd"
   xmlns="http://www.w3.org/2000/svg"
   xmlns:svg="http://www.w3.org/2000/svg">
  <defs
     id="defs445" />
  <sodipodi:namedview
     id="namedview443"
     pagecolor="#ffffff"
     bordercolor="#666666"
     borderopacity="1.0"
     inkscape:showpageshadow="2"
     inkscape:pageopacity="0.0"
     inkscape:pagecheckerboard="0"
     inkscape:deskcolor="#d1d1d1" />
  <path
     style="color:#000000;fill:#ffffff;stroke-linecap:round;stroke-linejoin:round;stroke-miterlimit:10;-inkscape-stroke:none"
     d="m 10,7 c -1.6509292,0 -3,1.3490708 -3,3 0,1.650921 1.3490684,3 3,3 1.650924,0 3,-1.349076 3,-3 0,-1.6509316 -1.349079,-3 -3,-3 z m 0,1 c 1.110476,0 2,0.8895144 2,2 0,1.110474 -0.889526,2 -2,2 C 8.8895144,12 8,11.110476 8,10 8,8.889512 8.889512,8 10,8 Z"
     id="path391" />
  <path
     style="color:#000000;fill:#ffffff;stroke-linecap:round;stroke-linejoin:round;stroke-miterlimit:10;-inkscape-stroke:none"
     d="M 7.8164062,1.6992187 C 7.3486329,1.575112 6.8342185,1.6289698 6.3867187,1.8945312 L 4.9511719,2.7167969 C 3.9548032,3.2861486 3.6132815,4.57153 4.1835937,5.5585937 4.5037075,6.110879 4.4878707,6.4964046 4.3496094,6.7363281 4.211348,6.9762517 3.8863,7.1835937 3.25,7.1835937 c -1.148016,0 -2.0839844,0.9448889 -2.0839844,2.0839844 v 1.4648439 c 0,1.139123 0.935957,2.083984 2.0839844,2.083984 0.6363077,0 0.9613528,0.207356 1.0996094,0.447266 0.1382565,0.23991 0.1541056,0.625407 -0.1660157,1.177734 -0.5703122,0.987064 -0.2288057,2.272476 0.7675782,2.841797 l 1.4335937,0.822266 c 6e-4,3.57e-4 0.00135,-3.56e-4 0.00195,0 0.8956202,0.531532 2.0566872,0.210474 2.5839844,-0.675782 a 0.50005,0.50005 0 0 0 0.00391,-0.0039 l 0.089844,-0.158203 c 0.3202014,-0.552459 0.6639877,-0.732422 0.9414059,-0.732422 0.277419,0 0.619352,0.178856 0.935547,0.730469 a 0.50005,0.50005 0 0 0 0,0.002 l 0.0918,0.158203 a 0.50005,0.50005 0 0 0 0.0039,0.0059 c 0.527681,0.886832 1.68814,1.206871 2.583985,0.673828 l 1.435547,-0.822266 c 0.993973,-0.567966 1.334159,-1.848294 0.767578,-2.839844 a 0.50005,0.50005 0 0 0 0,-0.002 c -0.320112,-0.552332 -0.304267,-0.937828 -0.166016,-1.177734 0.138251,-0.239906 0.463261,-0.447266 1.099609,-0.447266 1.148028,0 2.083985,-0.944873 2.083985,-2.083984 V 9.2675781 c 0,-1.1480274 -0.94493,-2.0839844 -2.083985,-2.0839844 -0.63634,0 -0.961353,-0.2073465 -1.099609,-0.4472656 C 15.519947,6.496409 15.504115,6.1108837 15.824219,5.5585937 16.394473,4.5715401 16.052987,3.2861581 15.056641,2.7167969 L 13.621094,1.8945312 C 12.72527,1.3615414 11.56479,1.683427 11.037109,2.5703125 a 0.50005,0.50005 0 0 0 -0.0039,0.00391 l -0.0918,0.1582031 C 10.62123,3.2848369 10.277437,3.4648438 10,3.4648438 c -0.2774375,0 -0.6174042,-0.1788951 -0.9335937,-0.7304688 a 0.50005,0.50005 0 0 0 -0.00195,-0.00195 L 8.9746094,2.5742188 a 0.50005,0.50005 0 0 0 -0.00391,-0.00391 C 8.7068781,2.1268612 8.284807,1.8234919 7.8164062,1.6992187 Z m -0.25,0.9628907 c 0.2177306,0.05869 0.413095,0.2033487 0.5410157,0.4160156 l 0.091797,0.15625 C 8.633029,3.9903264 9.2841401,4.4648437 10,4.4648437 c 0.716297,0 1.368518,-0.474555 1.806641,-1.2304687 l 0.08984,-0.1542969 C 12.152203,2.650285 12.6886,2.5035569 13.109375,2.7539063 a 0.50005,0.50005 0 0 0 0.0078,0.00586 l 1.441406,0.8242188 a 0.50005,0.50005 0 0 0 0.002,0 c 0.519642,0.2969489 0.693331,0.9599603 0.398437,1.4726562 -0.438195,0.7560388 -0.525537,1.55919 -0.167968,2.1796875 0.357568,0.6204975 1.094738,0.9472656 1.966796,0.9472657 0.594144,0 1.083985,0.4820135 1.083985,1.0839843 v 1.4648439 c 0,0.594287 -0.482014,1.083984 -1.083985,1.083984 -0.87205,0 -1.609223,0.326773 -1.966796,0.947266 -0.356931,0.619378 -0.270124,1.42091 0.166015,2.175781 0.300018,0.525049 0.126141,1.177929 -0.396484,1.476563 a 0.50005,0.50005 0 0 0 -0.002,0 l -1.441406,0.824218 a 0.50005,0.50005 0 0 0 -0.0078,0.0059 c -0.420754,0.250356 -0.957172,0.103594 -1.212891,-0.326172 l -0.08789,-0.152344 -0.002,-0.002 c -0.433805,-0.755272 -1.085298,-1.230469 -1.800782,-1.230469 -0.7163051,0 -1.3685024,0.474529 -1.8066402,1.230469 l -0.091797,0.15625 v 0.002 c -0.2569065,0.425785 -0.7918213,0.571636 -1.2109375,0.322266 a 0.50005,0.50005 0 0 0 -0.00781,-0.0059 L 5.4472656,16.416016 C 4.9276013,16.119086 4.7539123,15.456045 5.0488281,14.943359 v -0.002 C 5.4861583,14.185847 5.5740997,13.383683 5.2167969,12.763672 4.8592189,12.143183 4.1220207,11.816406 3.25,11.816406 c -0.6019708,0 -1.0839844,-0.489709 -1.0839844,-1.083984 V 9.2675781 c 0,-0.5942227 0.4820021,-1.0839844 1.0839844,-1.0839843 0.8720285,0 1.6092237,-0.3267726 1.9667969,-0.9472657 C 5.5740949,6.6163125 5.4861657,5.814126 5.0488281,5.0585937 v -0.00195 C 4.7539123,4.5439547 4.9275862,3.8809431 5.4472656,3.5839844 L 6.8886719,2.7597656 a 0.50005,0.50005 0 0 0 0.00781,-0.00586 C 7.1068918,2.6287255 7.3473076,2.6030502 7.5664062,2.6621094 Z"
     id="path388" />
</svg>
