<?xml version="1.0" encoding="UTF-8" standalone="no"?>
<svg
   width="12"
   height="11"
   viewBox="0 0 12 11"
   fill="none"
   version="1.1"
   id="svg478"
   sodipodi:docname="star_filled.svg"
   xmlns:inkscape="http://www.inkscape.org/namespaces/inkscape"
   xmlns:sodipodi="http://sodipodi.sourceforge.net/DTD/sodipodi-0.dtd"
   xmlns="http://www.w3.org/2000/svg"
   xmlns:svg="http://www.w3.org/2000/svg">
  <defs
     id="defs482" />
  <sodipodi:namedview
     id="namedview480"
     pagecolor="#ffffff"
     bordercolor="#666666"
     borderopacity="1.0"
     inkscape:showpageshadow="2"
     inkscape:pageopacity="0.0"
     inkscape:pagecheckerboard="0"
     inkscape:deskcolor="#d1d1d1" />
  <g
     id="path476">
    <path
       style="color:#000000;fill:#ffd130;-inkscape-stroke:none"
       d="M 6,1.61803 6.87156,4.30041 6.98381,4.6459 H 7.34708 10.1675 L 7.88573,6.3037 7.59184,6.51722 7.7041,6.86271 8.57565,9.54508 6.29389,7.88729 6,7.67376 5.70611,7.88729 3.42435,9.54508 4.2959,6.86271 4.40816,6.51722 4.11426,6.3037 1.8325,4.6459 H 4.65292 5.01619 L 5.12844,4.30041 Z"
       id="path486" />
    <path
       style="color:#000000;fill:#ffd130;-inkscape-stroke:none"
       d="M 6,0 5.5253906,1.4628906 4.6523437,4.1464844 H 0.29296875 L 3.8203125,6.7089844 2.4726563,10.853516 6,8.2910156 9.5273438,10.853516 8.1796875,6.7089844 11.707031,4.1464844 H 7.3476562 Z M 6,3.234375 6.3964844,4.4550781 6.6210937,5.1464844 H 7.3476562 8.6269531 L 7.5917969,5.8984375 7.0039062,6.3261719 7.2285156,7.0175781 7.625,8.2363281 6.5878906,7.4824219 6,7.0566406 5.4121094,7.4824219 4.375,8.2363281 4.7714844,7.0175781 4.9960937,6.3261719 4.4082031,5.8984375 3.3730469,5.1464844 H 4.6523437 5.3789062 L 5.6035156,4.4550781 Z"
       id="path488" />
  </g>
</svg>
