<?xml version="1.0" encoding="UTF-8" standalone="no"?>
<svg
   width="24"
   height="24"
   viewBox="0 0 24 24"
   fill="none"
   version="1.1"
   id="svg504"
   sodipodi:docname="useful.svg"
   xmlns:inkscape="http://www.inkscape.org/namespaces/inkscape"
   xmlns:sodipodi="http://sodipodi.sourceforge.net/DTD/sodipodi-0.dtd"
   xmlns="http://www.w3.org/2000/svg"
   xmlns:svg="http://www.w3.org/2000/svg">
  <defs
     id="defs508" />
  <sodipodi:namedview
     id="namedview506"
     pagecolor="#ffffff"
     bordercolor="#666666"
     borderopacity="1.0"
     inkscape:showpageshadow="2"
     inkscape:pageopacity="0.0"
     inkscape:pagecheckerboard="0"
     inkscape:deskcolor="#d1d1d1" />
  <path
     style="color:#000000;fill:#313131;stroke-linecap:round;stroke-linejoin:round;stroke-miterlimit:10;-inkscape-stroke:none"
     d="M 8,1.25 C 6.1071447,1.25 4.6152249,1.8135619 3.6386719,2.8652344 2.6621189,3.9169068 2.25,5.3750016 2.25,7 v 10 c 0,1.624998 0.4121189,3.083093 1.3886719,4.134766 C 4.6152249,22.186438 6.1071447,22.75 8,22.75 h 8 c 1.892855,0 3.384775,-0.563562 4.361328,-1.615234 C 21.337881,20.083093 21.75,18.624998 21.75,17 V 7 C 21.75,5.3750016 21.337881,3.9169068 20.361328,2.8652344 19.384775,1.8135619 17.892855,1.25 16,1.25 Z m 0,1.5 h 8 c 1.607141,0 2.615226,0.4364398 3.263672,1.1347656 C 19.912117,4.5830914 20.25,5.6250014 20.25,7 v 10 c 0,1.374999 -0.337883,2.416909 -0.986328,3.115234 C 18.615226,20.81356 17.607141,21.25 16,21.25 H 8 C 6.3928587,21.25 5.3847735,20.81356 4.7363281,20.115234 4.0878827,19.416909 3.75,18.374999 3.75,17 V 7 C 3.75,5.6250014 4.0878827,4.5830914 4.7363281,3.8847656 5.3847735,3.1864398 6.3928587,2.75 8,2.75 Z"
     id="path458" />
  <path
     style="color:#000000;fill:#313131;stroke-linecap:round;stroke-linejoin:round;stroke-miterlimit:10;-inkscape-stroke:none"
     d="M 8.5,1.25 A 0.750075,0.750075 0 0 0 7.75,2 v 7.859375 c 0,0.515469 0.3353328,0.96575 0.7519531,1.146484 0.4166203,0.180735 0.9620751,0.12342 1.3417969,-0.220703 a 0.750075,0.750075 0 0 0 0.00391,-0.0039 L 12,8.7949219 14.152344,10.78125 a 0.750075,0.750075 0 0 0 0.0039,0.0039 c 0.379713,0.344115 0.925177,0.401446 1.341797,0.220703 C 15.914667,10.825117 16.25,10.374827 16.25,9.859375 V 2 A 0.750075,0.750075 0 0 0 15.5,1.25 Z m 0.75,1.5 h 5.5 V 9.2949219 L 12.853516,7.5429687 c -0.475607,-0.4485992 -1.231425,-0.4485992 -1.707032,0 -6.57e-4,6.197e-4 -0.0013,0.00133 -0.002,0.00195 L 9.25,9.2949219 Z M 8.8359375,9.6738281 c 8.68e-4,-7.866e-4 0.00301,7.733e-4 0.00391,0 l -0.00781,0.00586 z m 6.3242185,0 c 8.96e-4,7.732e-4 0.003,-7.865e-4 0.0039,0 l 0.0039,0.00586 z"
     id="path455" />
  <path
     style="color:#000000;fill:#313131;stroke-linecap:round;stroke-linejoin:round;stroke-miterlimit:10;-inkscape-stroke:none"
     d="M 13.25,13.25 A 0.75,0.75 0 0 0 12.5,14 0.75,0.75 0 0 0 13.25,14.75 H 17.5 A 0.75,0.75 0 0 0 18.25,14 0.75,0.75 0 0 0 17.5,13.25 Z"
     id="path452" />
  <path
     style="color:#000000;fill:#313131;stroke-linecap:round;stroke-linejoin:round;stroke-miterlimit:10;-inkscape-stroke:none"
     d="M 9,17.25 A 0.75,0.75 0 0 0 8.25,18 0.75,0.75 0 0 0 9,18.75 h 8.5 A 0.75,0.75 0 0 0 18.25,18 0.75,0.75 0 0 0 17.5,17.25 Z"
     id="path449" />
</svg>
