<?xml version="1.0" encoding="UTF-8" standalone="no"?>
<svg
   width="16"
   height="16"
   viewBox="0 0 16 16"
   fill="none"
   version="1.1"
   id="svg475"
   sodipodi:docname="user-tag.svg"
   xmlns:inkscape="http://www.inkscape.org/namespaces/inkscape"
   xmlns:sodipodi="http://sodipodi.sourceforge.net/DTD/sodipodi-0.dtd"
   xmlns="http://www.w3.org/2000/svg"
   xmlns:svg="http://www.w3.org/2000/svg">
  <defs
     id="defs479" />
  <sodipodi:namedview
     id="namedview477"
     pagecolor="#ffffff"
     bordercolor="#666666"
     borderopacity="1.0"
     inkscape:showpageshadow="2"
     inkscape:pageopacity="0.0"
     inkscape:pagecheckerboard="0"
     inkscape:deskcolor="#d1d1d1" />
  <path
     style="color:#000000;fill:#a8db19;stroke-linecap:round;stroke-linejoin:round;-inkscape-stroke:none"
     d="m 7.9980469,4.1660156 c -1.1280945,0 -2.0527344,0.9265844 -2.0527344,2.0546875 0,1.1281032 0.9246205,2.0527344 2.0527344,2.0527344 1.128107,0 2.0546871,-0.9246312 2.0546871,-2.0527344 0,-1.1281031 -0.9265995,-2.0546875 -2.0546871,-2.0546875 z m 0,1 c 0.5876707,0 1.0546875,0.4670324 1.0546875,1.0546875 0,0.5876552 -0.4670363,1.0527344 -1.0546875,1.0527344 -0.5876644,0 -1.0527344,-0.4650792 -1.0527344,-1.0527344 0,-0.5876551 0.4650505,-1.0546875 1.0527344,-1.0546875 z"
     id="path467" />
  <path
     style="color:#000000;fill:#a8db19;stroke-linecap:round;stroke-linejoin:round;-inkscape-stroke:none"
     d="m 7.9980469,8.8730469 c -1.6935523,0 -3.1660156,1.1423491 -3.1660157,2.6738281 a 0.5,0.5 0 0 0 0.5,0.5 0.5,0.5 0 0 0 0.5,-0.5 c 0,-0.868519 0.9128909,-1.6738281 2.1660157,-1.6738281 1.2531133,0 2.1679691,0.8053211 2.1679691,1.6738281 a 0.5,0.5 0 0 0 0.5,0.5 0.5,0.5 0 0 0 0.5,-0.5 c 0,-1.53149 -1.4744254,-2.6738281 -3.1679691,-2.6738281 z"
     id="path469" />
  <path
     fill-rule="evenodd"
     clip-rule="evenodd"
     d="M1.3347 7.86459C1.35905 6.66566 1.70663 5.49025 2.34748 4.4654C3.1259 3.22056 4.29347 2.2675 5.66898 1.75415C7.04449 1.2408 8.55099 1.19586 9.95464 1.62633C11.1447 1.99128 12.2044 2.68064 13.0181 3.611C13.1641 3.778 13.3023 3.95276 13.4318 4.13481L13.3057 4.22455L12.8886 4.52133L12.7625 4.61107C12.0162 3.56224 10.9445 2.78911 9.71379 2.41168C8.48309 2.03426 7.16222 2.07365 5.9562 2.52375C4.75019 2.97385 3.72648 3.80948 3.04397 4.90093C2.51478 5.74722 2.21367 6.71061 2.16258 7.69803L2.42966 7.43095C2.55984 7.30078 2.77089 7.30078 2.90107 7.43095C3.03124 7.56113 3.03124 7.77218 2.90107 7.90236L1.90107 8.90236C1.77089 9.03253 1.55984 9.03253 1.42966 8.90236L0.429662 7.90236C0.299488 7.77218 0.299488 7.56113 0.429662 7.43095C0.559837 7.30078 0.770892 7.30078 0.901067 7.43095L1.3347 7.86459Z"
     fill="#A8DB19"
     id="path471" />
  <path
     fill-rule="evenodd"
     clip-rule="evenodd"
     d="M15.0974 8.56904C15.2276 8.69921 15.4386 8.69921 15.5688 8.56904C15.699 8.43886 15.699 8.22781 15.5688 8.09763L14.5688 7.09763C14.4386 6.96746 14.2276 6.96746 14.0974 7.09763L13.0974 8.09763C12.9672 8.22781 12.9672 8.43886 13.0974 8.56904C13.2276 8.69921 13.4386 8.69921 13.5688 8.56904L13.8157 8.32213C13.7542 9.43284 13.3755 10.5065 12.7197 11.4134C11.9679 12.4529 10.8941 13.2151 9.66483 13.5818C8.43557 13.9485 7.11964 13.8991 5.9213 13.4414C4.72296 12.9837 3.70923 12.1431 3.03747 11.0503L2.88826 11.142L2.46952 11.3994L2.32031 11.4911C2.43732 11.6815 2.56339 11.8652 2.69789 12.0416C3.44719 13.0246 4.45811 13.7836 5.62091 14.2278C6.99244 14.7517 8.49855 14.8082 9.90547 14.3885C11.3124 13.9688 12.5414 13.0964 13.4018 11.9068C14.1312 10.8981 14.5611 9.70929 14.6494 8.47645C14.6575 8.36353 14.6627 8.25023 14.665 8.13667L15.0974 8.56904ZM14.3466 7.81819L14.3331 7.80474L14.3189 7.81898L14.3466 7.81819Z"
     fill="#A8DB19"
     id="path473" />
</svg>
