<svg width="40" height="40" viewBox="0 0 40 40" fill="none" xmlns="http://www.w3.org/2000/svg">
<path d="M5.61634 33.5C4.04967 31.6167 3.33301 28.85 3.33301 25V15C3.33301 6.66671 6.66634 3.33337 14.9997 3.33337H24.9997C28.6497 3.33337 31.333 3.96671 33.1997 5.38337" stroke="white" stroke-width="1.5" stroke-linecap="round" stroke-linejoin="round"/>
<path d="M36.6163 13.3167C36.6496 13.85 36.6663 14.4167 36.6663 15V25C36.6663 33.3333 33.3329 36.6667 24.9996 36.6667H14.9996C13.7663 36.6667 12.6329 36.6 11.5996 36.4333" stroke="white" stroke-width="1.5" stroke-linecap="round" stroke-linejoin="round"/>
<path d="M13.3333 16.6667C15.1743 16.6667 16.6667 15.1743 16.6667 13.3333C16.6667 11.4924 15.1743 10 13.3333 10C11.4924 10 10 11.4924 10 13.3333C10 15.1743 11.4924 16.6667 13.3333 16.6667Z" stroke="white" stroke-width="1.5" stroke-linecap="round" stroke-linejoin="round"/>
<path d="M36.6663 3.33337L3.33301 36.6667" stroke="white" stroke-width="1.5" stroke-linecap="round" stroke-linejoin="round"/>
<path d="M19.0498 27.4166C19.5498 27.9166 20.3665 27.9166 20.8665 27.4166L29.2498 19.0166C30.5498 17.7166 32.6498 17.7166 33.9498 19.0166L36.6665 21.75" stroke="white" stroke-width="1.5" stroke-linecap="round" stroke-linejoin="round"/>
</svg>
