<svg width="318" height="137" viewBox="0 0 318 137" fill="none" xmlns="http://www.w3.org/2000/svg">
<path d="M314.304 137H4.24082C2.64266 137 1.69004 135.218 2.57765 133.889L91.4061 0.889199C91.7772 0.33361 92.4012 0 93.0693 0H227.418C228.093 0 228.723 0.340791 229.092 0.906155L315.979 133.906C316.848 135.236 315.893 137 314.304 137Z" fill="url(#paint0_linear_1324_1489)"/>
<path d="M299.316 130.522H19.729C18.5322 130.522 17.8174 129.189 18.4795 128.192L98.5333 7.64674C98.8113 7.22816 99.2804 6.97656 99.7829 6.97656H221.012C221.52 6.97656 221.993 7.23355 222.27 7.65946L300.574 128.205C301.222 129.203 300.506 130.522 299.316 130.522Z" stroke="white"/>
<path d="M213.206 7L282.148 130.5H36.8607L107.29 7H213.206Z" stroke="white"/>
<path d="M99.0122 21H220.708M53 102H265" stroke="white"/>
<path d="M160 21.4219L160 102.127" stroke="white" stroke-width="2"/>
<path d="M43 40.3525H284" stroke="#D9D9D9" stroke-width="0.5"/>
<path d="M43 42.3452H284" stroke="#D9D9D9" stroke-width="0.5"/>
<path d="M43 44.3379H284" stroke="#D9D9D9" stroke-width="0.5"/>
<path d="M43 46.3306H284" stroke="#D9D9D9" stroke-width="0.5"/>
<path d="M43 48.3232H284" stroke="#D9D9D9" stroke-width="0.5"/>
<path d="M43 50.3159H284" stroke="#D9D9D9" stroke-width="0.5"/>
<path d="M43 52.3091H284" stroke="#D9D9D9" stroke-width="0.5"/>
<path d="M43 54.3018H284" stroke="#D9D9D9" stroke-width="0.5"/>
<path d="M43 56.2944H284" stroke="#D9D9D9" stroke-width="0.5"/>
<path d="M43 58.2871H284" stroke="#D9D9D9" stroke-width="0.5"/>
<path d="M44 40.3525V58.2871" stroke="#D9D9D9" stroke-width="2"/>
<path d="M283 40.3525L283 58.2871" stroke="#D9D9D9" stroke-width="2"/>
<path d="M47 40.3525V58.2871" stroke="#D9D9D9" stroke-width="0.5"/>
<path d="M49 40.3525V58.2871" stroke="#D9D9D9" stroke-width="0.5"/>
<path d="M51 40.3525V58.2871" stroke="#D9D9D9" stroke-width="0.5"/>
<path d="M53 40.3525V58.2871" stroke="#D9D9D9" stroke-width="0.5"/>
<path d="M55 40.3525V58.2871" stroke="#D9D9D9" stroke-width="0.5"/>
<path d="M57 40.3525V58.2871" stroke="#D9D9D9" stroke-width="0.5"/>
<path d="M59 40.3525V58.2871" stroke="#D9D9D9" stroke-width="0.5"/>
<path d="M61 40.3525V58.2871" stroke="#D9D9D9" stroke-width="0.5"/>
<path d="M63 40.3525V58.2871" stroke="#D9D9D9" stroke-width="0.5"/>
<path d="M65 40.3525V58.2871" stroke="#D9D9D9" stroke-width="0.5"/>
<path d="M67 40.3525V58.2871" stroke="#D9D9D9" stroke-width="0.5"/>
<path d="M69 40.3525V58.2871" stroke="#D9D9D9" stroke-width="0.5"/>
<path d="M71 40.3525V58.2871" stroke="#D9D9D9" stroke-width="0.5"/>
<path d="M73 40.3525V58.2871" stroke="#D9D9D9" stroke-width="0.5"/>
<path d="M75 40.3525V58.2871" stroke="#D9D9D9" stroke-width="0.5"/>
<path d="M77 40.3525V58.2871" stroke="#D9D9D9" stroke-width="0.5"/>
<path d="M79 40.3525V58.2871" stroke="#D9D9D9" stroke-width="0.5"/>
<path d="M81 40.3525V58.2871" stroke="#D9D9D9" stroke-width="0.5"/>
<path d="M83 40.3525V58.2871" stroke="#D9D9D9" stroke-width="0.5"/>
<path d="M85 40.3525V58.2871" stroke="#D9D9D9" stroke-width="0.5"/>
<path d="M87 40.3525V58.2871" stroke="#D9D9D9" stroke-width="0.5"/>
<path d="M89 40.3525V58.2871" stroke="#D9D9D9" stroke-width="0.5"/>
<path d="M91 40.3525V58.2871" stroke="#D9D9D9" stroke-width="0.5"/>
<path d="M93 40.3525V58.2871" stroke="#D9D9D9" stroke-width="0.5"/>
<path d="M95 40.3525V58.2871" stroke="#D9D9D9" stroke-width="0.5"/>
<path d="M97 40.3525V58.2871" stroke="#D9D9D9" stroke-width="0.5"/>
<path d="M99 40.3525V58.2871" stroke="#D9D9D9" stroke-width="0.5"/>
<path d="M101 40.3525V58.2871" stroke="#D9D9D9" stroke-width="0.5"/>
<path d="M103 40.3525V58.2871" stroke="#D9D9D9" stroke-width="0.5"/>
<path d="M105 40.3525V58.2871" stroke="#D9D9D9" stroke-width="0.5"/>
<path d="M107 40.3525V58.2871" stroke="#D9D9D9" stroke-width="0.5"/>
<path d="M109 40.3525V58.2871" stroke="#D9D9D9" stroke-width="0.5"/>
<path d="M111 40.3525V58.2871" stroke="#D9D9D9" stroke-width="0.5"/>
<path d="M113 40.3525V58.2871" stroke="#D9D9D9" stroke-width="0.5"/>
<path d="M115 40.3525V58.2871" stroke="#D9D9D9" stroke-width="0.5"/>
<path d="M117 40.3525V58.2871" stroke="#D9D9D9" stroke-width="0.5"/>
<path d="M119 40.3525V58.2871" stroke="#D9D9D9" stroke-width="0.5"/>
<path d="M121 40.3525V58.2871" stroke="#D9D9D9" stroke-width="0.5"/>
<path d="M123 40.3525V58.2871" stroke="#D9D9D9" stroke-width="0.5"/>
<path d="M125 40.3525V58.2871" stroke="#D9D9D9" stroke-width="0.5"/>
<path d="M127 40.3525V58.2871" stroke="#D9D9D9" stroke-width="0.5"/>
<path d="M129 40.3525V58.2871" stroke="#D9D9D9" stroke-width="0.5"/>
<path d="M131 40.3525V58.2871" stroke="#D9D9D9" stroke-width="0.5"/>
<path d="M133 40.3525V58.2871" stroke="#D9D9D9" stroke-width="0.5"/>
<path d="M135 40.3525V58.2871" stroke="#D9D9D9" stroke-width="0.5"/>
<path d="M137 40.3525V58.2871" stroke="#D9D9D9" stroke-width="0.5"/>
<path d="M139 40.3525V58.2871" stroke="#D9D9D9" stroke-width="0.5"/>
<path d="M141 40.3525V58.2871" stroke="#D9D9D9" stroke-width="0.5"/>
<path d="M143 40.3525V58.2871" stroke="#D9D9D9" stroke-width="0.5"/>
<path d="M145 40.3525V58.2871" stroke="#D9D9D9" stroke-width="0.5"/>
<path d="M147 40.3525V58.2871" stroke="#D9D9D9" stroke-width="0.5"/>
<path d="M149 40.3525V58.2871" stroke="#D9D9D9" stroke-width="0.5"/>
<path d="M151 40.3525V58.2871" stroke="#D9D9D9" stroke-width="0.5"/>
<path d="M153 40.3525V58.2871" stroke="#D9D9D9" stroke-width="0.5"/>
<path d="M155 40.3525V58.2871" stroke="#D9D9D9" stroke-width="0.5"/>
<path d="M157 40.3525V58.2871" stroke="#D9D9D9" stroke-width="0.5"/>
<path d="M159 40.3525V58.2871" stroke="#D9D9D9" stroke-width="0.5"/>
<path d="M161 40.3525V58.2871" stroke="#D9D9D9" stroke-width="0.5"/>
<path d="M163 40.3525V58.2871" stroke="#D9D9D9" stroke-width="0.5"/>
<path d="M165 40.3525V58.2871" stroke="#D9D9D9" stroke-width="0.5"/>
<path d="M167 40.3525V58.2871" stroke="#D9D9D9" stroke-width="0.5"/>
<path d="M169 40.3525V58.2871" stroke="#D9D9D9" stroke-width="0.5"/>
<path d="M171 40.3525V58.2871" stroke="#D9D9D9" stroke-width="0.5"/>
<path d="M173 40.3525V58.2871" stroke="#D9D9D9" stroke-width="0.5"/>
<path d="M175 40.3525V58.2871" stroke="#D9D9D9" stroke-width="0.5"/>
<path d="M177 40.3525V58.2871" stroke="#D9D9D9" stroke-width="0.5"/>
<path d="M179 40.3525V58.2871" stroke="#D9D9D9" stroke-width="0.5"/>
<path d="M181 40.3525V58.2871" stroke="#D9D9D9" stroke-width="0.5"/>
<path d="M183 40.3525V58.2871" stroke="#D9D9D9" stroke-width="0.5"/>
<path d="M185 40.3525V58.2871" stroke="#D9D9D9" stroke-width="0.5"/>
<path d="M187 40.3525V58.2871" stroke="#D9D9D9" stroke-width="0.5"/>
<path d="M189 40.3525V58.2871" stroke="#D9D9D9" stroke-width="0.5"/>
<path d="M191 40.3525V58.2871" stroke="#D9D9D9" stroke-width="0.5"/>
<path d="M193 40.3525V58.2871" stroke="#D9D9D9" stroke-width="0.5"/>
<path d="M195 40.3525V58.2871" stroke="#D9D9D9" stroke-width="0.5"/>
<path d="M197 40.3525V58.2871" stroke="#D9D9D9" stroke-width="0.5"/>
<path d="M199 40.3525V58.2871" stroke="#D9D9D9" stroke-width="0.5"/>
<path d="M201 40.3525V58.2871" stroke="#D9D9D9" stroke-width="0.5"/>
<path d="M203 40.3525V58.2871" stroke="#D9D9D9" stroke-width="0.5"/>
<path d="M205 40.3525V58.2871" stroke="#D9D9D9" stroke-width="0.5"/>
<path d="M207 40.3525V58.2871" stroke="#D9D9D9" stroke-width="0.5"/>
<path d="M209 40.3525V58.2871" stroke="#D9D9D9" stroke-width="0.5"/>
<path d="M211 40.3525V58.2871" stroke="#D9D9D9" stroke-width="0.5"/>
<path d="M213 40.3525V58.2871" stroke="#D9D9D9" stroke-width="0.5"/>
<path d="M215 40.3525V58.2871" stroke="#D9D9D9" stroke-width="0.5"/>
<path d="M217 40.3525V58.2871" stroke="#D9D9D9" stroke-width="0.5"/>
<path d="M219 40.3525V58.2871" stroke="#D9D9D9" stroke-width="0.5"/>
<path d="M221 40.3525V58.2871" stroke="#D9D9D9" stroke-width="0.5"/>
<path d="M223 40.3525V58.2871" stroke="#D9D9D9" stroke-width="0.5"/>
<path d="M225 40.3525V58.2871" stroke="#D9D9D9" stroke-width="0.5"/>
<path d="M227 40.3525V58.2871" stroke="#D9D9D9" stroke-width="0.5"/>
<path d="M229 40.3525V58.2871" stroke="#D9D9D9" stroke-width="0.5"/>
<path d="M231 40.3525V58.2871" stroke="#D9D9D9" stroke-width="0.5"/>
<path d="M233 40.3525V58.2871" stroke="#D9D9D9" stroke-width="0.5"/>
<path d="M235 40.3525V58.2871" stroke="#D9D9D9" stroke-width="0.5"/>
<path d="M237 40.3525V58.2871" stroke="#D9D9D9" stroke-width="0.5"/>
<path d="M239 40.3525V58.2871" stroke="#D9D9D9" stroke-width="0.5"/>
<path d="M241 40.3525V58.2871" stroke="#D9D9D9" stroke-width="0.5"/>
<path d="M243 40.3525V58.2871" stroke="#D9D9D9" stroke-width="0.5"/>
<path d="M245 40.3525V58.2871" stroke="#D9D9D9" stroke-width="0.5"/>
<path d="M247 40.3525V58.2871" stroke="#D9D9D9" stroke-width="0.5"/>
<path d="M249 40.3525V58.2871" stroke="#D9D9D9" stroke-width="0.5"/>
<path d="M251 40.3525V58.2871" stroke="#D9D9D9" stroke-width="0.5"/>
<path d="M253 40.3525V58.2871" stroke="#D9D9D9" stroke-width="0.5"/>
<path d="M255 40.3525V58.2871" stroke="#D9D9D9" stroke-width="0.5"/>
<path d="M257 40.3525V58.2871" stroke="#D9D9D9" stroke-width="0.5"/>
<path d="M259 40.3525V58.2871" stroke="#D9D9D9" stroke-width="0.5"/>
<path d="M261 40.3525V58.2871" stroke="#D9D9D9" stroke-width="0.5"/>
<path d="M263 40.3525V58.2871" stroke="#D9D9D9" stroke-width="0.5"/>
<path d="M265 40.3525V58.2871" stroke="#D9D9D9" stroke-width="0.5"/>
<path d="M267 40.3525V58.2871" stroke="#D9D9D9" stroke-width="0.5"/>
<path d="M269 40.3525V58.2871" stroke="#D9D9D9" stroke-width="0.5"/>
<path d="M271 40.3525V58.2871" stroke="#D9D9D9" stroke-width="0.5"/>
<path d="M273 40.3525V58.2871" stroke="#D9D9D9" stroke-width="0.5"/>
<path d="M275 40.3525V58.2871" stroke="#D9D9D9" stroke-width="0.5"/>
<path d="M277 40.3525V58.2871" stroke="#D9D9D9" stroke-width="0.5"/>
<path d="M279 40.3525V58.2871" stroke="#D9D9D9" stroke-width="0.5"/>
<path d="M281 40.3525V58.2871" stroke="#D9D9D9" stroke-width="0.5"/>
<g filter="url(#filter0_d_1324_1489)">
<ellipse cx="6.01079" cy="6.02899" rx="6.01079" ry="6.02899" transform="matrix(-0.292637 -0.956223 0.956816 -0.290693 207.519 66.313)" fill="#F7ED0F"/>
</g>
<g filter="url(#filter1_d_1324_1489)">
<path d="M216.206 66.4866L247.714 115.915" stroke="white" stroke-width="1.2" stroke-dasharray="4 4"/>
</g>
<defs>
<filter id="filter0_d_1324_1489" x="202.496" y="51.8022" width="16.0645" height="16.021" filterUnits="userSpaceOnUse" color-interpolation-filters="sRGB">
<feFlood flood-opacity="0" result="BackgroundImageFix"/>
<feColorMatrix in="SourceAlpha" type="matrix" values="0 0 0 0 0 0 0 0 0 0 0 0 0 0 0 0 0 0 127 0" result="hardAlpha"/>
<feOffset dx="-1" dy="1"/>
<feGaussianBlur stdDeviation="1"/>
<feComposite in2="hardAlpha" operator="out"/>
<feColorMatrix type="matrix" values="0 0 0 0 0 0 0 0 0 0 0 0 0 0 0 0 0 0 0.15 0"/>
<feBlend mode="normal" in2="BackgroundImageFix" result="effect1_dropShadow_1324_1489"/>
<feBlend mode="normal" in="SourceGraphic" in2="effect1_dropShadow_1324_1489" result="shape"/>
</filter>
<filter id="filter1_d_1324_1489" x="214.699" y="66.1646" width="34.5215" height="52.0723" filterUnits="userSpaceOnUse" color-interpolation-filters="sRGB">
<feFlood flood-opacity="0" result="BackgroundImageFix"/>
<feColorMatrix in="SourceAlpha" type="matrix" values="0 0 0 0 0 0 0 0 0 0 0 0 0 0 0 0 0 0 127 0" result="hardAlpha"/>
<feOffset dy="1"/>
<feGaussianBlur stdDeviation="0.5"/>
<feComposite in2="hardAlpha" operator="out"/>
<feColorMatrix type="matrix" values="0 0 0 0 0 0 0 0 0 0 0 0 0 0 0 0 0 0 0.15 0"/>
<feBlend mode="normal" in2="BackgroundImageFix" result="effect1_dropShadow_1324_1489"/>
<feBlend mode="normal" in="SourceGraphic" in2="effect1_dropShadow_1324_1489" result="shape"/>
</filter>
<linearGradient id="paint0_linear_1324_1489" x1="116.5" y1="-8.46912" x2="286.445" y2="143.096" gradientUnits="userSpaceOnUse">
<stop stop-color="#A8DB19"/>
<stop offset="1" stop-color="#65B400"/>
</linearGradient>
</defs>
</svg>
